<?xml version="1.0" encoding="utf-8"?>
<!-- Generator: Adobe Illustrator 21.0.2, SVG Export Plug-In . SVG Version: 6.00 Build 0)  -->
<svg version="1.1" id="Capa_1" xmlns="http://www.w3.org/2000/svg" xmlns:xlink="http://www.w3.org/1999/xlink" x="0px" y="0px"
	 viewBox="0 0 452.4 452.4" style="enable-background:new 0 0 452.4 452.4;" xml:space="preserve">
<style type="text/css">
	.st0{fill:#FFFFFF;}
</style>
<g>
	<g id="Layer_8_14_">
		<path class="st0" d="M441.7,43.6h-431C4.8,43.6,0,48.4,0,54.3v297.4c0,5.9,4.8,10.7,10.7,10.7h162.1v25.6c0,0.4,0.1,0.7,0.1,1.1
			h-23.3c-5.4,0-9.8,4.4-9.8,9.8c0,5.4,4.4,9.8,9.8,9.8h158.5c5.4,0,9.8-4.4,9.8-9.8c0-5.4-4.4-9.8-9.8-9.8h-23.3
			c0-0.4,0.1-0.7,0.1-1.1v-25.6h156.7c5.9,0,10.7-4.8,10.7-10.7V54.3C452.4,48.4,447.6,43.6,441.7,43.6z M422.1,305.1
			c0,5.9-4.8,10.7-10.7,10.7H41c-5.9,0-10.7-4.8-10.7-10.7V79.6c0-5.9,4.8-10.7,10.7-10.7h370.4c5.9,0,10.7,4.8,10.7,10.7
			L422.1,305.1L422.1,305.1z"/>
	</g>
</g>
</svg>
