<?xml version="1.0" encoding="utf-8"?>
<!-- Generator: Adobe Illustrator 21.0.2, SVG Export Plug-In . SVG Version: 6.00 Build 0)  -->
<svg version="1.1" id="Capa_1" xmlns="http://www.w3.org/2000/svg" xmlns:xlink="http://www.w3.org/1999/xlink" x="0px" y="0px"
	 viewBox="0 0 20.8 20.8" style="enable-background:new 0 0 20.8 20.8;" xml:space="preserve">
<style type="text/css">
	.st0{fill:#FFFFFF;}
</style>
<g>
	<g>
		<circle class="st0" cx="10.4" cy="15.8" r="2.4"/>
		<path class="st0" d="M16.2,9.9c0,0-0.1-0.1-0.1-0.1L16,9.7c0,0,0,0-0.1-0.1C12.8,6.8,8,6.9,5,9.9l-0.4,0.4l-0.5,0.5
			c-0.6,0.6-0.6,1.6,0,2.2c0.6,0.6,1.6,0.6,2.2,0l0.8-0.8c1.9-1.9,5-1.9,6.9,0l0.6,0.6c0.6,0.6,1.5,0.6,2.1,0
			c0.3-0.3,0.4-0.7,0.4-1.1c0-0.4-0.2-0.8-0.4-1.1L16.2,9.9z"/>
		<path class="st0" d="M20.4,6.9l-0.5-0.5c0,0,0,0,0,0L19.5,6c-0.1-0.1-0.1-0.1-0.2-0.2C14.1,1.3,6.3,1.5,1.4,6.2c0,0-0.1,0-0.1,0.1
			L0.4,7.2c-0.5,0.5-0.5,1.4,0,2c0.5,0.5,1.4,0.5,2,0l0.9-0.9c0,0,0,0,0,0c4-3.9,10.4-3.9,14.4-0.1l0.7,0.7c0.5,0.5,1.4,0.5,2,0
			C20.9,8.3,20.9,7.5,20.4,6.9z"/>
	</g>
</g>
</svg>
