<?xml version="1.0" encoding="iso-8859-1"?>
<!-- Generator: Adobe Illustrator 19.0.0, SVG Export Plug-In . SVG Version: 6.00 Build 0)  -->
<svg version="1.1" id="Layer_1" xmlns="http://www.w3.org/2000/svg" xmlns:xlink="http://www.w3.org/1999/xlink" x="0px" y="0px"
	 viewBox="0 0 512 512" style="enable-background:new 0 0 512 512;" xml:space="preserve">
<g>
	<g>
		<path d="M42.672,74.664C36.782,74.664,32,79.445,32,85.336s4.781,10.672,10.672,10.672s10.656-4.781,10.656-10.672
			S48.562,74.664,42.672,74.664z"/>
	</g>
</g>
<g>
	<g>
		<path d="M74.672,74.664C68.782,74.664,64,79.445,64,85.336s4.781,10.672,10.672,10.672s10.656-4.781,10.656-10.672
			S80.562,74.664,74.672,74.664z"/>
	</g>
</g>
<g>
	<g>
		<path d="M106.672,74.664c-5.89,0-10.672,4.781-10.672,10.672s4.781,10.672,10.672,10.672s10.656-4.781,10.656-10.672
			S112.562,74.664,106.672,74.664z"/>
	</g>
</g>
<g>
	<g>
		<path d="M373.328,138.664h-320c-5.891,0-10.656,4.781-10.656,10.672s4.766,10.672,10.656,10.672h320
			c5.891,0,10.672-4.781,10.672-10.672S379.219,138.664,373.328,138.664z"/>
	</g>
</g>
<g>
	<g>
		<path d="M224,181.336H53.328c-5.891,0-10.656,4.781-10.656,10.672s4.766,10.656,10.656,10.656H224
			c5.891,0,10.672-4.766,10.672-10.656S229.891,181.336,224,181.336z"/>
	</g>
</g>
<g>
	<g>
		<path d="M288,224.008H53.328c-5.891,0-10.656,4.766-10.656,10.656c0,5.906,4.766,10.672,10.656,10.672h234.641
			c0.016,0,0.016,0,0.031,0c5.891,0,10.672-4.766,10.672-10.672C298.672,228.789,293.891,224.008,288,224.008z"/>
	</g>
</g>
<g>
	<g>
		<path d="M202.672,266.672H53.328c-5.891,0-10.656,4.781-10.656,10.648c0,5.907,4.766,10.688,10.656,10.688h149.344
			c5.891,0,10.656-4.781,10.656-10.688C213.328,271.453,208.562,266.672,202.672,266.672z"/>
	</g>
</g>
<g>
	<g>
		<path d="M224,309.32H53.328c-5.891,0-10.656,4.781-10.656,10.688c0,5.875,4.766,10.656,10.656,10.656h170.641
			c0.016,0,0.016,0,0.031,0c5.891,0,10.672-4.781,10.672-10.656C234.672,314.102,229.891,309.32,224,309.32z"/>
	</g>
</g>
<g>
	<g>
		<path d="M138.672,352.008H53.328c-5.891,0-10.656,4.75-10.656,10.656s4.766,10.656,10.656,10.656h85.344
			c5.891,0,10.656-4.75,10.656-10.656C149.328,356.789,144.562,352.008,138.672,352.008z"/>
	</g>
</g>
<g>
	<g>
		<path d="M501.328,352.008h-32.281c0.156-3.531,0.219-7.094,0.219-10.688c0-3.25-0.078-6.438-0.234-9.531
			c27.594-13.25,32-41,32.188-42.219l-0.016-0.031c0.078-0.5,0.125-1,0.125-1.531c0-5.906-4.766-10.688-10.656-10.688
			c-5.359,0-9.781,3.969-10.547,9.125h-0.016c-0.016,0.125-1.719,10.812-10.781,19.5V74.664c0-11.781-9.547-21.328-21.328-21.328
			H21.328C9.547,53.336,0,62.883,0,74.664v341.344h293.203c-13.078,13.5-15.625,29.5-15.75,30.438
			c-0.062,0.5-0.125,1.031-0.125,1.562c0,5.875,4.781,10.656,10.672,10.656c5.359,0,9.781-3.969,10.547-9.125v0.031
			c0.031-0.188,2.75-17.219,19.641-25.781c13.703,21.531,35.109,34.875,65.812,34.875s52.109-13.344,65.812-34.875
			c16.578,8.438,19.516,25.094,19.641,25.844v-0.094c0.766,5.156,5.188,9.125,10.547,9.125c5.891,0,10.672-4.781,10.672-10.656
			c0-0.531-0.062-1.062-0.125-1.562c-0.172-1.25-4.5-28.406-31.297-41.812c3.594-9.562,6.172-20.094,7.828-31.312h34.25
			c5.891,0,10.672-4.75,10.672-10.656C512,356.789,507.219,352.008,501.328,352.008z M373.328,436.57
			c-15.937-2.312-28.062-10.187-36.875-23.843c-10.719-16.594-16.391-41.281-16.391-71.406c0-7.688,0.5-14.812,1.469-21.312h51.797
			V436.57z M327.344,298.664c2.547-5.906,5.766-10.969,9.641-15.188c4.438-4.844,9.922-8.625,16.422-11.375l0.297,0.5l2.922-1.742
			c7.828-2.781,16.969-4.188,27.375-4.188c10.516,0,19.734,1.438,27.609,4.25l2.781,1.68l0.281-0.469
			c6.469,2.75,11.922,6.531,16.359,11.344c3.859,4.219,7.078,9.281,9.625,15.188H327.344z M431.547,412.727
			c-8.812,13.656-20.938,21.531-36.875,23.844V320.008h51.797c0.984,6.5,1.469,13.625,1.469,21.312
			C447.938,371.445,442.281,396.133,431.547,412.727z M448,270.453c-6.188-7.125-13.641-12.695-22.281-16.789l20.859-34.844v-0.016
			c0.734-1.234,1.234-2.625,1.422-4.109V270.453z M448,211.977c-0.672-5.25-5.141-9.312-10.578-9.312
			c-3.875,0-7.266,2.094-9.141,5.203v-0.016l-23.5,39.25c-6.5-1.172-13.438-1.766-20.781-1.766c-7.312,0-14.219,0.594-20.703,1.766
			l-23.469-39.234h-0.016c-1.859-3.109-5.266-5.203-9.141-5.203c-5.891,0-10.672,4.781-10.672,10.672c0,2,0.562,3.875,1.516,5.469
			v0.016l20.844,34.812c-20.594,9.695-34.516,27.969-40.422,55.125c-11.703-8.875-13.984-21.75-14.094-22.406l0.016,0.094
			c-0.766-5.156-5.188-9.125-10.547-9.125c-5.891,0-10.672,4.781-10.672,10.688c0,0.531,0.062,1.031,0.125,1.531v0.031
			c0.172,1.219,4.594,29,32.203,42.25c-0.156,3.094-0.234,6.25-0.234,9.5c0,3.594,0.078,7.156,0.219,10.688h-32.281
			c-5.891,0-10.672,4.781-10.672,10.656s4.781,10.656,10.672,10.656h34.266c1.078,7.438,2.578,14.594,4.531,21.344H21.328v-277.33
			H448V211.977z M448,96.008H106.672h-32h-32H21.328V74.664h21.344h32h32H448V96.008z"/>
	</g>
</g>
<g>
</g>
<g>
</g>
<g>
</g>
<g>
</g>
<g>
</g>
<g>
</g>
<g>
</g>
<g>
</g>
<g>
</g>
<g>
</g>
<g>
</g>
<g>
</g>
<g>
</g>
<g>
</g>
<g>
</g>
</svg>
