<?xml version="1.0" encoding="utf-8"?>
<!-- Generator: Adobe Illustrator 21.0.2, SVG Export Plug-In . SVG Version: 6.00 Build 0)  -->
<svg version="1.1" id="Layer_1" xmlns="http://www.w3.org/2000/svg" xmlns:xlink="http://www.w3.org/1999/xlink" x="0px" y="0px"
	 viewBox="0 0 512 512" style="enable-background:new 0 0 512 512;" xml:space="preserve">
<style type="text/css">
	.st0{fill:#FFFFFF;}
</style>
<g>
	<g>
		<path class="st0" d="M42.7,74.7c-5.9,0-10.7,4.8-10.7,10.7S36.8,96,42.7,96s10.7-4.8,10.7-10.7S48.6,74.7,42.7,74.7z"/>
	</g>
</g>
<g>
	<g>
		<path class="st0" d="M74.7,74.7c-5.9,0-10.7,4.8-10.7,10.7S68.8,96,74.7,96s10.7-4.8,10.7-10.7S80.6,74.7,74.7,74.7z"/>
	</g>
</g>
<g>
	<g>
		<path class="st0" d="M106.7,74.7c-5.9,0-10.7,4.8-10.7,10.7S100.8,96,106.7,96s10.7-4.8,10.7-10.7S112.6,74.7,106.7,74.7z"/>
	</g>
</g>
<g>
	<g>
		<path class="st0" d="M373.3,138.7h-320c-5.9,0-10.7,4.8-10.7,10.7S47.4,160,53.3,160h320c5.9,0,10.7-4.8,10.7-10.7
			S379.2,138.7,373.3,138.7z"/>
	</g>
</g>
<g>
	<g>
		<path class="st0" d="M224,181.3H53.3c-5.9,0-10.7,4.8-10.7,10.7s4.8,10.7,10.7,10.7H224c5.9,0,10.7-4.8,10.7-10.7
			S229.9,181.3,224,181.3z"/>
	</g>
</g>
<g>
	<g>
		<path class="st0" d="M288,224H53.3c-5.9,0-10.7,4.8-10.7,10.7c0,5.9,4.8,10.7,10.7,10.7H288c0,0,0,0,0,0c5.9,0,10.7-4.8,10.7-10.7
			C298.7,228.8,293.9,224,288,224z"/>
	</g>
</g>
<g>
	<g>
		<path class="st0" d="M202.7,266.7H53.3c-5.9,0-10.7,4.8-10.7,10.6c0,5.9,4.8,10.7,10.7,10.7h149.3c5.9,0,10.7-4.8,10.7-10.7
			C213.3,271.5,208.6,266.7,202.7,266.7z"/>
	</g>
</g>
<g>
	<g>
		<path class="st0" d="M224,309.3H53.3c-5.9,0-10.7,4.8-10.7,10.7c0,5.9,4.8,10.7,10.7,10.7H224c0,0,0,0,0,0
			c5.9,0,10.7-4.8,10.7-10.7C234.7,314.1,229.9,309.3,224,309.3z"/>
	</g>
</g>
<g>
	<g>
		<path class="st0" d="M138.7,352H53.3c-5.9,0-10.7,4.8-10.7,10.7s4.8,10.7,10.7,10.7h85.3c5.9,0,10.7-4.8,10.7-10.7
			C149.3,356.8,144.6,352,138.7,352z"/>
	</g>
</g>
<g>
	<g>
		<path class="st0" d="M501.3,352H469c0.2-3.5,0.2-7.1,0.2-10.7c0-3.3-0.1-6.4-0.2-9.5c27.6-13.3,32-41,32.2-42.2l0,0
			c0.1-0.5,0.1-1,0.1-1.5c0-5.9-4.8-10.7-10.7-10.7c-5.4,0-9.8,4-10.5,9.1h0c0,0.1-1.7,10.8-10.8,19.5V74.7
			c0-11.8-9.5-21.3-21.3-21.3H21.3C9.5,53.3,0,62.9,0,74.7V416h293.2c-13.1,13.5-15.6,29.5-15.8,30.4c-0.1,0.5-0.1,1-0.1,1.6
			c0,5.9,4.8,10.7,10.7,10.7c5.4,0,9.8-4,10.5-9.1v0c0-0.2,2.8-17.2,19.6-25.8c13.7,21.5,35.1,34.9,65.8,34.9s52.1-13.3,65.8-34.9
			c16.6,8.4,19.5,25.1,19.6,25.8v-0.1c0.8,5.2,5.2,9.1,10.5,9.1c5.9,0,10.7-4.8,10.7-10.7c0-0.5-0.1-1.1-0.1-1.6
			c-0.2-1.3-4.5-28.4-31.3-41.8c3.6-9.6,6.2-20.1,7.8-31.3h34.3c5.9,0,10.7-4.8,10.7-10.7C512,356.8,507.2,352,501.3,352z
			 M373.3,436.6c-15.9-2.3-28.1-10.2-36.9-23.8c-10.7-16.6-16.4-41.3-16.4-71.4c0-7.7,0.5-14.8,1.5-21.3h51.8V436.6z M327.3,298.7
			c2.5-5.9,5.8-11,9.6-15.2c4.4-4.8,9.9-8.6,16.4-11.4l0.3,0.5l2.9-1.7c7.8-2.8,17-4.2,27.4-4.2c10.5,0,19.7,1.4,27.6,4.3l2.8,1.7
			l0.3-0.5c6.5,2.8,11.9,6.5,16.4,11.3c3.9,4.2,7.1,9.3,9.6,15.2H327.3z M431.5,412.7c-8.8,13.7-20.9,21.5-36.9,23.8V320h51.8
			c1,6.5,1.5,13.6,1.5,21.3C447.9,371.4,442.3,396.1,431.5,412.7z M448,270.5c-6.2-7.1-13.6-12.7-22.3-16.8l20.9-34.8v0
			c0.7-1.2,1.2-2.6,1.4-4.1V270.5z M448,212c-0.7-5.3-5.1-9.3-10.6-9.3c-3.9,0-7.3,2.1-9.1,5.2v0l-23.5,39.3
			c-6.5-1.2-13.4-1.8-20.8-1.8c-7.3,0-14.2,0.6-20.7,1.8l-23.5-39.2h0c-1.9-3.1-5.3-5.2-9.1-5.2c-5.9,0-10.7,4.8-10.7,10.7
			c0,2,0.6,3.9,1.5,5.5v0l20.8,34.8c-20.6,9.7-34.5,28-40.4,55.1c-11.7-8.9-14-21.8-14.1-22.4l0,0.1c-0.8-5.2-5.2-9.1-10.5-9.1
			c-5.9,0-10.7,4.8-10.7,10.7c0,0.5,0.1,1,0.1,1.5v0c0.2,1.2,4.6,29,32.2,42.3c-0.2,3.1-0.2,6.3-0.2,9.5c0,3.6,0.1,7.2,0.2,10.7
			h-32.3c-5.9,0-10.7,4.8-10.7,10.7s4.8,10.7,10.7,10.7h34.3c1.1,7.4,2.6,14.6,4.5,21.3H21.3V117.3H448V212z M448,96H106.7h-32h-32
			H21.3V74.7h21.3h32h32H448V96z"/>
	</g>
</g>
</svg>
