<?xml version="1.0" encoding="iso-8859-1"?>
<!-- Generator: Adobe Illustrator 16.0.0, SVG Export Plug-In . SVG Version: 6.00 Build 0)  -->
<!DOCTYPE svg PUBLIC "-//W3C//DTD SVG 1.1//EN" "http://www.w3.org/Graphics/SVG/1.1/DTD/svg11.dtd">
<svg version="1.1" id="Capa_1" xmlns="http://www.w3.org/2000/svg" xmlns:xlink="http://www.w3.org/1999/xlink" x="0px" y="0px"
	 width="436.223px" height="436.223px" viewBox="0 0 436.223 436.223" style="enable-background:new 0 0 436.223 436.223;"
	 xml:space="preserve">
<g>
	<g>
		<path d="M366.723,0H69.5c-8.31,0-15.07,6.76-15.07,15.069v406.083c0,8.311,6.761,15.07,15.07,15.07h297.223
			c8.311,0,15.07-6.762,15.07-15.07V15.069C381.793,6.759,375.031,0,366.723,0z M106.611,37.624c11.58,0,21,9.422,21,21
			c0,11.58-9.42,21-21,21s-21-9.42-21-21C85.611,47.046,95.031,37.624,106.611,37.624z M106.611,398.598c-11.58,0-21-9.422-21-21
			c0-11.58,9.42-21,21-21s21,9.42,21,21C127.611,389.176,118.191,398.598,106.611,398.598z M241.236,336.939l18.635-53.149
			c1.432-4.095,0.085-8.813-3.615-11.474c-4.503-3.236-10.775-2.209-14.012,2.293l-45.083,62.734
			c-56.865-9.922-100.095-59.527-100.095-119.233c0-66.852,54.193-121.045,121.045-121.045c66.85,0,121.045,54.193,121.045,121.045
			C339.156,277.053,297.023,326.146,241.236,336.939z M329.611,398.598c-11.58,0-21-9.422-21-21c0-11.58,9.42-21,21-21
			s21,9.42,21,21C350.611,389.176,341.191,398.598,329.611,398.598z M329.611,79.624c-11.58,0-21-9.42-21-21c0-11.578,9.42-21,21-21
			s21,9.422,21,21C350.611,70.204,341.191,79.624,329.611,79.624z"/>
		<circle cx="218.111" cy="218.111" r="32.999"/>
	</g>
</g>
<g>
</g>
<g>
</g>
<g>
</g>
<g>
</g>
<g>
</g>
<g>
</g>
<g>
</g>
<g>
</g>
<g>
</g>
<g>
</g>
<g>
</g>
<g>
</g>
<g>
</g>
<g>
</g>
<g>
</g>
</svg>
