<?xml version="1.0" encoding="iso-8859-1"?>
<!-- Generator: Adobe Illustrator 19.0.0, SVG Export Plug-In . SVG Version: 6.00 Build 0)  -->
<svg version="1.1" id="Layer_1" xmlns="http://www.w3.org/2000/svg" xmlns:xlink="http://www.w3.org/1999/xlink" x="0px" y="0px"
	 viewBox="0 0 512 512" style="enable-background:new 0 0 512 512;" xml:space="preserve">
<g>
	<g>
		<path d="M472,325h-20.303v-23.354h19.964c5.523,0,10-4.477,10-10V172.823c0-5.523-4.477-10-10-10h-19.964v-24.001h19.964
			c5.523,0,10-4.477,10-10V10c0-5.523-4.477-10-10-10H40.339c-5.523,0-10,4.477-10,10v118.822c0,5.523,4.477,10,10,10h19.964v24.001
			H40.339c-5.523,0-10,4.477-10,10v118.823c0,5.523,4.477,10,10,10h19.964V325H40c-5.523,0-10,4.477-10,10v120
			c0,5.523,4.477,10,10,10h20v37c0,5.523,4.477,10,10,10h372c5.523,0,10-4.477,10-10v-37h20c5.523,0,10-4.477,10-10V335
			C482,329.477,477.523,325,472,325z M50.339,118.822V20h411.322v98.822h-19.964H70.303H50.339z M431.697,138.822v24.001H80.303
			v-24.001H431.697z M50.339,281.646v-39.412h192.995c5.523,0,10-4.477,10-10c0-5.523-4.477-10-10-10H50.339v-39.411h19.955
			c0.003,0,0.006,0,0.01,0h371.394c0.003,0,0.006,0,0.01,0h19.955v98.823h-19.964H70.303H50.339z M431.697,301.646V325H80.303
			v-23.354H431.697z M432,492H80v-27h352V492z M462,445h-20H70H50V345h20.303h371.394H462V445z"/>
	</g>
</g>
<g>
	<g>
		<path d="M418.333,198.734h-91c-5.523,0-10,4.477-10,10v47c0,5.523,4.477,10,10,10h91c5.523,0,10-4.477,10-10v-47
			C428.333,203.211,423.856,198.734,418.333,198.734z M408.333,245.734h-71v-27h71V245.734z"/>
	</g>
</g>
<g>
	<g>
		<path d="M418.333,362.975h-91c-5.523,0-10,4.477-10,10v12.082H120.72c-5.523,0-10,4.477-10,10s4.477,10,10,10h196.614v14.918
			c0,5.523,4.477,10,10,10h91c5.523,0,10-4.477,10-10v-47C428.333,367.452,423.856,362.975,418.333,362.975z M408.333,409.975h-71
			v-27h71V409.975z"/>
	</g>
</g>
<g>
	<g>
		<path d="M86.79,62.34c-0.46-0.46-0.97-0.88-1.52-1.24c-0.54-0.36-1.12-0.67-1.73-0.92c-0.6-0.25-1.23-0.44-1.87-0.57
			c-1.29-0.26-2.61-0.26-3.9,0c-0.64,0.13-1.27,0.32-1.87,0.57c-0.61,0.25-1.19,0.56-1.73,0.92c-0.55,0.36-1.06,0.78-1.52,1.24
			c-0.46,0.46-0.88,0.97-1.24,1.52c-0.37,0.54-0.67,1.12-0.92,1.73c-0.25,0.6-0.45,1.23-0.57,1.87c-0.13,0.64-0.2,1.3-0.2,1.95
			c0,0.65,0.07,1.31,0.2,1.96c0.12,0.63,0.32,1.26,0.57,1.87c0.25,0.6,0.55,1.18,0.92,1.72c0.36,0.55,0.78,1.06,1.24,1.52
			c0.46,0.46,0.97,0.88,1.52,1.25c0.54,0.36,1.12,0.66,1.73,0.91c0.6,0.25,1.23,0.45,1.87,0.58s1.3,0.19,1.95,0.19
			c0.65,0,1.31-0.06,1.95-0.19c0.64-0.13,1.27-0.33,1.87-0.58c0.61-0.25,1.19-0.55,1.73-0.91c0.55-0.37,1.06-0.79,1.52-1.25
			c0.46-0.46,0.88-0.97,1.24-1.52c0.36-0.54,0.67-1.12,0.92-1.72c0.25-0.61,0.45-1.24,0.57-1.87c0.13-0.65,0.2-1.31,0.2-1.96
			C89.72,66.78,88.65,64.2,86.79,62.34z"/>
	</g>
</g>
<g>
	<g>
		<path d="M418.334,35.911h-91c-5.523,0-10,4.477-10,10v13.5H120.72c-5.523,0-10,4.477-10,10s4.477,10,10,10h196.614v13.5
			c0,5.523,4.477,10,10,10h91c5.523,0,10-4.477,10-10v-47C428.334,40.388,423.857,35.911,418.334,35.911z M408.333,82.911h-71v-27
			h71V82.911z"/>
	</g>
</g>
<g>
	<g>
		<path d="M89.52,393.1c-0.12-0.63-0.32-1.26-0.57-1.87c-0.25-0.6-0.56-1.18-0.92-1.72c-0.36-0.55-0.78-1.06-1.24-1.52
			c-0.46-0.46-0.97-0.88-1.52-1.25c-0.54-0.36-1.12-0.67-1.73-0.92c-0.6-0.25-1.23-0.44-1.87-0.57c-1.29-0.26-2.61-0.26-3.9,0
			c-0.64,0.13-1.27,0.32-1.87,0.57c-0.61,0.25-1.19,0.56-1.73,0.92c-0.55,0.37-1.06,0.79-1.52,1.25c-0.46,0.46-0.88,0.97-1.24,1.52
			c-0.37,0.54-0.67,1.12-0.92,1.72c-0.25,0.61-0.45,1.24-0.57,1.87c-0.13,0.65-0.2,1.31-0.2,1.96c0,0.65,0.07,1.31,0.2,1.95
			c0.12,0.64,0.32,1.27,0.57,1.87c0.25,0.6,0.55,1.19,0.92,1.73c0.36,0.55,0.78,1.06,1.24,1.52c0.46,0.46,0.97,0.88,1.52,1.24
			c0.54,0.36,1.12,0.67,1.73,0.92c0.6,0.25,1.23,0.44,1.87,0.57c0.64,0.13,1.3,0.2,1.95,0.2c0.65,0,1.31-0.07,1.95-0.2
			s1.27-0.32,1.87-0.57c0.61-0.25,1.19-0.56,1.73-0.92c0.55-0.36,1.06-0.78,1.52-1.24c1.86-1.86,2.93-4.44,2.93-7.07
			C89.72,394.41,89.65,393.75,89.52,393.1z"/>
	</g>
</g>
<g>
	<g>
		<path d="M291.4,225.16c-0.46-0.46-0.97-0.88-1.52-1.24c-0.54-0.36-1.12-0.67-1.72-0.92c-0.61-0.25-1.24-0.44-1.87-0.57
			c-1.29-0.26-2.62-0.26-3.91,0c-0.64,0.13-1.27,0.32-1.87,0.57c-0.6,0.25-1.19,0.56-1.73,0.92c-0.55,0.36-1.06,0.78-1.52,1.24
			c-1.86,1.86-2.93,4.44-2.93,7.07c0,0.66,0.07,1.31,0.2,1.96c0.13,0.64,0.32,1.27,0.57,1.87s0.56,1.18,0.92,1.72
			c0.36,0.55,0.78,1.06,1.24,1.53c0.46,0.46,0.97,0.87,1.52,1.24c0.54,0.36,1.13,0.67,1.73,0.92c0.6,0.25,1.23,0.44,1.87,0.57
			c0.64,0.13,1.3,0.19,1.95,0.19s1.31-0.06,1.96-0.19c0.63-0.13,1.26-0.32,1.87-0.57c0.6-0.25,1.18-0.56,1.72-0.92
			c0.55-0.37,1.06-0.78,1.52-1.24c0.46-0.47,0.88-0.98,1.25-1.53c0.36-0.54,0.67-1.12,0.92-1.72c0.25-0.6,0.44-1.23,0.57-1.87
			c0.13-0.65,0.19-1.3,0.19-1.96C294.33,229.6,293.27,227.02,291.4,225.16z"/>
	</g>
</g>
<g>
</g>
<g>
</g>
<g>
</g>
<g>
</g>
<g>
</g>
<g>
</g>
<g>
</g>
<g>
</g>
<g>
</g>
<g>
</g>
<g>
</g>
<g>
</g>
<g>
</g>
<g>
</g>
<g>
</g>
</svg>
