<?xml version="1.0" encoding="utf-8"?>
<!-- Generator: Adobe Illustrator 21.0.2, SVG Export Plug-In . SVG Version: 6.00 Build 0)  -->
<svg version="1.1" id="Layer_1" xmlns="http://www.w3.org/2000/svg" xmlns:xlink="http://www.w3.org/1999/xlink" x="0px" y="0px"
	 viewBox="0 0 512 512" style="enable-background:new 0 0 512 512;" xml:space="preserve">
<style type="text/css">
	.st0{fill:#FFFFFF;}
</style>
<g>
	<g>
		<path class="st0" d="M472,325h-20.3v-23.4h20c5.5,0,10-4.5,10-10V172.8c0-5.5-4.5-10-10-10h-20v-24h20c5.5,0,10-4.5,10-10V10
			c0-5.5-4.5-10-10-10H40.3c-5.5,0-10,4.5-10,10v118.8c0,5.5,4.5,10,10,10h20v24h-20c-5.5,0-10,4.5-10,10v118.8c0,5.5,4.5,10,10,10
			h20V325H40c-5.5,0-10,4.5-10,10v120c0,5.5,4.5,10,10,10h20v37c0,5.5,4.5,10,10,10h372c5.5,0,10-4.5,10-10v-37h20
			c5.5,0,10-4.5,10-10V335C482,329.5,477.5,325,472,325z M50.3,118.8V20h411.3v98.8h-20H70.3H50.3z M431.7,138.8v24H80.3v-24
			L431.7,138.8L431.7,138.8z M50.3,281.6v-39.4h193c5.5,0,10-4.5,10-10s-4.5-10-10-10h-193v-39.4h20c0,0,0,0,0,0h371.4c0,0,0,0,0,0
			h20v98.8h-20H70.3H50.3z M431.7,301.6V325H80.3v-23.4H431.7z M432,492H80v-27h352V492z M462,445h-20H70H50V345h20.3h371.4H462V445
			z"/>
	</g>
</g>
<g>
	<g>
		<path class="st0" d="M418.3,198.7h-91c-5.5,0-10,4.5-10,10v47c0,5.5,4.5,10,10,10h91c5.5,0,10-4.5,10-10v-47
			C428.3,203.2,423.9,198.7,418.3,198.7z M408.3,245.7h-71v-27h71V245.7z"/>
	</g>
</g>
<g>
	<g>
		<path class="st0" d="M418.3,363h-91c-5.5,0-10,4.5-10,10v12.1H120.7c-5.5,0-10,4.5-10,10s4.5,10,10,10h196.6V420
			c0,5.5,4.5,10,10,10h91c5.5,0,10-4.5,10-10v-47C428.3,367.5,423.9,363,418.3,363z M408.3,410h-71v-27h71V410z"/>
	</g>
</g>
<g>
	<g>
		<path class="st0" d="M86.8,62.3c-0.5-0.5-1-0.9-1.5-1.2c-0.5-0.4-1.1-0.7-1.7-0.9c-0.6-0.3-1.2-0.4-1.9-0.6
			c-1.3-0.3-2.6-0.3-3.9,0c-0.6,0.1-1.3,0.3-1.9,0.6c-0.6,0.3-1.2,0.6-1.7,0.9c-0.6,0.4-1.1,0.8-1.5,1.2c-0.5,0.5-0.9,1-1.2,1.5
			c-0.4,0.5-0.7,1.1-0.9,1.7c-0.3,0.6-0.4,1.2-0.6,1.9c-0.1,0.6-0.2,1.3-0.2,1.9c0,0.7,0.1,1.3,0.2,2c0.1,0.6,0.3,1.3,0.6,1.9
			c0.3,0.6,0.6,1.2,0.9,1.7c0.4,0.6,0.8,1.1,1.2,1.5s1,0.9,1.5,1.3c0.5,0.4,1.1,0.7,1.7,0.9c0.6,0.3,1.2,0.4,1.9,0.6
			s1.3,0.2,1.9,0.2c0.7,0,1.3-0.1,1.9-0.2c0.6-0.1,1.3-0.3,1.9-0.6c0.6-0.3,1.2-0.6,1.7-0.9c0.6-0.4,1.1-0.8,1.5-1.3s0.9-1,1.2-1.5
			c0.4-0.5,0.7-1.1,0.9-1.7c0.3-0.6,0.4-1.2,0.6-1.9c0.1-0.7,0.2-1.3,0.2-2C89.7,66.8,88.7,64.2,86.8,62.3z"/>
	</g>
</g>
<g>
	<g>
		<path class="st0" d="M418.3,35.9h-91c-5.5,0-10,4.5-10,10v13.5H120.7c-5.5,0-10,4.5-10,10s4.5,10,10,10h196.6v13.5
			c0,5.5,4.5,10,10,10h91c5.5,0,10-4.5,10-10v-47C428.3,40.4,423.9,35.9,418.3,35.9z M408.3,82.9h-71v-27h71V82.9z"/>
	</g>
</g>
<g>
	<g>
		<path class="st0" d="M89.5,393.1c-0.1-0.6-0.3-1.3-0.6-1.9c-0.3-0.6-0.6-1.2-0.9-1.7c-0.4-0.5-0.8-1.1-1.2-1.5s-1-0.9-1.5-1.3
			c-0.5-0.4-1.1-0.7-1.7-0.9c-0.6-0.3-1.2-0.4-1.9-0.6c-1.3-0.3-2.6-0.3-3.9,0c-0.6,0.1-1.3,0.3-1.9,0.6c-0.6,0.3-1.2,0.6-1.7,0.9
			c-0.6,0.4-1.1,0.8-1.5,1.3s-0.9,1-1.2,1.5c-0.4,0.5-0.7,1.1-0.9,1.7c-0.3,0.6-0.4,1.2-0.6,1.9c-0.1,0.6-0.2,1.3-0.2,2
			s0.1,1.3,0.2,2c0.1,0.6,0.3,1.3,0.6,1.9s0.6,1.2,0.9,1.7c0.4,0.5,0.8,1.1,1.2,1.5s1,0.9,1.5,1.2c0.5,0.4,1.1,0.7,1.7,0.9
			c0.6,0.3,1.2,0.4,1.9,0.6s1.3,0.2,1.9,0.2c0.7,0,1.3-0.1,1.9-0.2s1.3-0.3,1.9-0.6c0.6-0.3,1.2-0.6,1.7-0.9
			c0.6-0.4,1.1-0.8,1.5-1.2c1.9-1.9,2.9-4.4,2.9-7.1C89.7,394.4,89.7,393.8,89.5,393.1z"/>
	</g>
</g>
<g>
	<g>
		<path class="st0" d="M291.4,225.2c-0.5-0.5-1-0.9-1.5-1.2c-0.5-0.4-1.1-0.7-1.7-0.9c-0.6-0.3-1.2-0.4-1.9-0.6
			c-1.3-0.3-2.6-0.3-3.9,0c-0.6,0.1-1.3,0.3-1.9,0.6s-1.2,0.6-1.7,0.9c-0.5,0.4-1.1,0.8-1.5,1.2c-1.9,1.9-2.9,4.4-2.9,7.1
			c0,0.7,0.1,1.3,0.2,2c0.1,0.6,0.3,1.3,0.6,1.9s0.6,1.2,0.9,1.7c0.4,0.6,0.8,1.1,1.2,1.5c0.5,0.5,1,0.9,1.5,1.2
			c0.5,0.4,1.1,0.7,1.7,0.9s1.2,0.4,1.9,0.6c0.6,0.1,1.3,0.2,2,0.2s1.3-0.1,2-0.2c0.6-0.1,1.3-0.3,1.9-0.6c0.6-0.3,1.2-0.6,1.7-0.9
			c0.5-0.4,1.1-0.8,1.5-1.2c0.5-0.5,0.9-1,1.3-1.5c0.4-0.5,0.7-1.1,0.9-1.7s0.4-1.2,0.6-1.9c0.1-0.6,0.2-1.3,0.2-2
			C294.3,229.6,293.3,227,291.4,225.2z"/>
	</g>
</g>
</svg>
