<?xml version="1.0" encoding="utf-8"?>
<!-- Generator: Adobe Illustrator 21.0.2, SVG Export Plug-In . SVG Version: 6.00 Build 0)  -->
<svg version="1.1" id="Capa_1" xmlns="http://www.w3.org/2000/svg" xmlns:xlink="http://www.w3.org/1999/xlink" x="0px" y="0px"
	 viewBox="0 0 479.8 479.8" style="enable-background:new 0 0 479.8 479.8;" xml:space="preserve">
<g>
	<g>
		<path d="M0,36.7l0,406.4c0,6.4,5.2,11.6,11.6,11.6h338.5c6.4,0,11.6-5.2,11.6-11.6c0-6.4-5.2-11.6-11.6-11.6H23.2V48.3h326.9
			c6.4,0,11.6-5.2,11.6-11.6c0-6.4-5.2-11.6-11.6-11.6H11.6C5.2,25.1,0,30.3,0,36.7z"/>
		<path d="M440.1,235.4h-217c-6.4,0-11.6,5.2-11.6,11.6c0,6.4,5.2,11.6,11.6,11.6h217l-51.8,51.8c-4.5,4.5-4.5,11.9,0,16.4
			c4.5,4.5,11.9,4.5,16.4,0l71.6-71.6c4.5-4.5,4.5-11.9,0-16.4l-71.6-71.6c-2.3-2.3-5.2-3.4-8.2-3.4c-3,0-5.9,1.1-8.2,3.4
			c-4.5,4.5-4.5,11.9,0,16.4L440.1,235.4z"/>
	</g>
</g>
</svg>
